<svg width="48" height="48" viewBox="0 0 48 48" fill="none" xmlns="http://www.w3.org/2000/svg">
<rect width="48" height="48" rx="24" fill="#E4E4E7"/>
<g clip-path="url(#clip0_1622_8620)">
<path fill-rule="evenodd" clip-rule="evenodd" d="M34.3048 18.25C33.9537 16.3994 32.3278 15 30.375 15H18.375C16.4222 15 14.7963 16.3994 14.4452 18.25L34.3048 18.25ZM34.375 19.75V22.25H14.375V19.75L34.375 19.75ZM14.375 23.75L34.375 23.75V26C34.375 26.5523 33.9273 27 33.375 27H30.375C28.1659 27 26.375 28.7909 26.375 31V32C26.375 32.5523 25.9273 33 25.375 33H18.375C16.1659 33 14.375 31.2091 14.375 29V23.75ZM19.375 29C19.375 29.5523 18.9273 30 18.375 30C17.8227 30 17.375 29.5523 17.375 29C17.375 28.4477 17.8227 28 18.375 28C18.9273 28 19.375 28.4477 19.375 29ZM29.9053 30.8839L30.625 31.6036V29C30.625 28.5858 30.9608 28.25 31.375 28.25C31.7892 28.25 32.125 28.5858 32.125 29V31.6036L32.8447 30.8839C33.1376 30.591 33.6124 30.591 33.9053 30.8839C34.1982 31.1768 34.1982 31.6516 33.9053 31.9445L32.6124 33.2374C31.929 33.9209 30.821 33.9209 30.1376 33.2374L28.8447 31.9445C28.5518 31.6516 28.5518 31.1768 28.8447 30.8839C29.1376 30.591 29.6124 30.591 29.9053 30.8839Z" fill="#E4815A"/>
<rect x="14" y="19" width="21" height="4" fill="#EBB69E"/>
</g>
<defs>
<clipPath id="clip0_1622_8620">
<rect width="20" height="18.75" fill="white" transform="translate(14.375 15)"/>
</clipPath>
</defs>
</svg>
