<svg width="48" height="48" viewBox="0 0 48 48" fill="none" xmlns="http://www.w3.org/2000/svg">
<rect x="0.000244141" width="48" height="48" rx="24" fill="#F4F4F5"/>
<path d="M32.4344 15.4839L13.1689 22.9146C11.854 23.4422 11.8618 24.1756 12.9292 24.5026L17.7341 26.0023L19.5725 31.6389C19.7961 32.2558 19.6859 32.5005 20.3337 32.5005C20.8336 32.5005 21.0554 32.2725 21.3339 32.0005C21.511 31.8273 22.5623 30.8051 23.7362 29.6638L28.7341 33.3565C29.6538 33.8639 30.3179 33.601 30.5469 32.5023L33.8277 17.042C34.1636 15.6954 33.3143 15.0845 32.4344 15.4839ZM18.4882 25.6578L29.3184 18.8249C29.859 18.497 30.3547 18.6733 29.9477 19.0346L20.6742 27.4016L20.3132 31.2528L18.4882 25.6578Z" fill="black"/>
</svg>
