<svg width="48" height="48" viewBox="0 0 48 48" fill="none" xmlns="http://www.w3.org/2000/svg">
<rect width="48" height="48" rx="24" fill="#E4E4E7"/>
<g clip-path="url(#clip0_1622_8908)">
<path d="M24.4683 30.4529C24.3668 30.4874 24.3089 30.3991 24.2399 30.3585C20.8557 28.3611 17.4752 26.3624 14.0985 24.3624C14.0658 24.3459 14.0318 24.332 13.9969 24.3208V24.2761L14.0569 24.2416C14.1419 24.2192 14.2256 24.1921 14.3076 24.1604L22.2824 20.5318C22.9931 20.208 23.7038 19.8892 24.4145 19.5684H24.4652C24.4652 19.6699 24.4652 19.7602 24.4652 19.8567C24.4679 23.3891 24.469 26.9212 24.4683 30.4529Z" fill="#E49D7E"/>
<path d="M24.4734 19.5708H24.4226C24.4226 19.4693 24.4328 19.3678 24.4328 19.2612C24.4328 15.2936 24.4328 11.3256 24.4328 7.35731C24.4211 7.25539 24.428 7.1522 24.4531 7.05273H24.4744C24.8917 7.66899 25.2551 8.31876 25.6389 8.95532C28.6792 13.9984 31.7179 19.0409 34.7549 24.0826C34.7843 24.1324 34.8076 24.1841 34.834 24.239C34.748 24.2206 34.6635 24.1958 34.5812 24.1649C34.0239 23.9131 33.4645 23.6572 32.9122 23.4004C32.0472 23.0044 31.1818 22.6091 30.3162 22.2145L26.1455 20.3252C25.5902 20.0693 25.0318 19.8206 24.4734 19.5708Z" fill="#EBB69E"/>
<path d="M24.4563 7.04647C24.4312 7.14594 24.4243 7.24913 24.436 7.35105C24.436 11.3187 24.436 15.2866 24.436 19.2549C24.436 19.3564 24.4299 19.458 24.4259 19.5646C23.7152 19.8854 23.0045 20.2042 22.2938 20.528L14.319 24.1566C14.237 24.1883 14.1533 24.2154 14.0682 24.2378C14.2987 23.7586 14.5982 23.324 14.8713 22.8651C18.0355 17.6055 21.2021 12.3468 24.371 7.08911C24.392 7.05999 24.4147 7.03218 24.4391 7.00586L24.4563 7.04647Z" fill="#F1CEBF"/>
<path d="M24.4735 19.5703C25.0318 19.8201 25.5902 20.0688 26.1476 20.3206L30.3183 22.21C31.1846 22.6039 32.05 22.9992 32.9143 23.3958C33.4707 23.6506 34.0311 23.9085 34.5834 24.1603C34.6657 24.1912 34.7502 24.216 34.8362 24.2344C34.9377 24.3613 34.7874 24.3664 34.7418 24.3938C33.8757 24.9116 33.0057 25.4222 32.1376 25.936C29.6462 27.4101 27.1554 28.8839 24.6653 30.3574C24.6024 30.3939 24.5344 30.4214 24.4684 30.4528C24.4684 26.9218 24.4684 23.3904 24.4684 19.8586C24.4694 19.7622 24.4724 19.6668 24.4735 19.5703Z" fill="#E4815A"/>
<path d="M24.4326 32.4576L30.9556 28.6128C32.201 27.8778 33.4457 27.1421 34.6897 26.4057L34.8024 26.3438C34.8136 26.4453 34.7435 26.4991 34.7009 26.558C31.8582 30.5655 29.0154 34.5717 26.1727 38.5765C25.6346 39.336 25.0976 40.0994 24.5544 40.8527C24.526 40.8923 24.4823 41.0781 24.395 40.8812C24.4641 40.8223 24.4336 40.7431 24.4336 40.6781C24.4343 37.9369 24.4339 35.1968 24.4326 32.4576Z" fill="#E4815A"/>
<path d="M24.432 32.4591C24.432 35.1982 24.432 37.9367 24.432 40.6745C24.432 40.7445 24.4625 40.8237 24.3934 40.8775C24.2483 40.7902 24.1853 40.6339 24.0889 40.5049C20.7927 35.8618 17.4982 31.2181 14.2054 26.5736C14.1637 26.5147 14.1252 26.4518 14.0825 26.3868C14.1678 26.3371 14.2135 26.4051 14.2632 26.4345C17.5967 28.4028 20.9294 30.3727 24.2615 32.3443C24.3234 32.3829 24.3762 32.4225 24.432 32.4591Z" fill="#F1CEBF"/>
<path d="M24.4571 7.04718L24.4327 7.00961C24.4774 6.98118 24.4713 7.02281 24.4784 7.04413L24.4571 7.04718Z" fill="#393939"/>
</g>
<defs>
<clipPath id="clip0_1622_8908">
<rect width="20.8696" height="33.9714" fill="white" transform="translate(14 7)"/>
</clipPath>
</defs>
</svg>
