<svg width="48" height="48" viewBox="0 0 48 48" fill="none" xmlns="http://www.w3.org/2000/svg">
<rect width="48" height="48" rx="24" fill="#F4F4F5"/>
<path d="M33.2407 15.5111C31.5411 14.7312 29.7185 14.1566 27.8128 13.8276C27.7781 13.8212 27.7434 13.8371 27.7256 13.8688C27.4912 14.2857 27.2315 14.8296 27.0497 15.2571C25 14.9503 22.9609 14.9503 20.9533 15.2571C20.7714 14.8201 20.5024 14.2857 20.2669 13.8688C20.249 13.8381 20.2143 13.8223 20.1797 13.8276C18.2751 14.1556 16.4524 14.7302 14.7517 15.5111C14.737 15.5174 14.7244 15.528 14.716 15.5418C11.2589 20.7066 10.3119 25.7445 10.7765 30.7199C10.7786 30.7443 10.7922 30.7675 10.8111 30.7824C13.092 32.4574 15.3015 33.4743 17.4699 34.1484C17.5046 34.1589 17.5414 34.1462 17.5635 34.1177C18.0764 33.4172 18.5336 32.6786 18.9257 31.9019C18.9488 31.8564 18.9267 31.8024 18.8794 31.7844C18.1542 31.5093 17.4636 31.1739 16.7993 30.7929C16.7467 30.7623 16.7425 30.6871 16.7909 30.6512C16.9307 30.5464 17.0705 30.4374 17.204 30.3274C17.2282 30.3073 17.2618 30.303 17.2902 30.3157C21.6544 32.3082 26.3791 32.3082 30.6918 30.3157C30.7202 30.302 30.7538 30.3062 30.779 30.3263C30.9125 30.4363 31.0523 30.5464 31.1932 30.6512C31.2415 30.6871 31.2384 30.7623 31.1858 30.7929C30.5215 31.1813 29.8309 31.5093 29.1046 31.7834C29.0573 31.8014 29.0363 31.8564 29.0594 31.9019C29.4599 32.6775 29.9171 33.4161 30.4206 34.1166C30.4416 34.1462 30.4795 34.1589 30.5141 34.1484C32.6931 33.4743 34.9025 32.4574 37.1834 30.7824C37.2034 30.7675 37.216 30.7453 37.2181 30.721C37.7741 24.9689 36.2868 19.9723 33.2754 15.5428C33.268 15.528 33.2554 15.5174 33.2407 15.5111ZM19.5774 27.6904C18.2635 27.6904 17.1809 26.4841 17.1809 25.0027C17.1809 23.5213 18.2425 22.315 19.5774 22.315C20.9228 22.315 21.9949 23.5319 21.9739 25.0027C21.9739 26.4841 20.9123 27.6904 19.5774 27.6904ZM28.4382 27.6904C27.1243 27.6904 26.0417 26.4841 26.0417 25.0027C26.0417 23.5213 27.1033 22.315 28.4382 22.315C29.7836 22.315 30.8558 23.5319 30.8347 25.0027C30.8347 26.4841 29.7836 27.6904 28.4382 27.6904Z" fill="black"/>
</svg>
