<svg width="16" height="16" viewBox="0 0 16 16" fill="none" xmlns="http://www.w3.org/2000/svg">
<path d="M4.33337 4.1414V2.6014C4.33346 2.35277 4.43229 2.11436 4.60813 1.93858C4.78396 1.76281 5.02241 1.66406 5.27104 1.66406H13.3957C13.6444 1.66406 13.8829 1.76285 14.0587 1.9387C14.2346 2.11455 14.3334 2.35304 14.3334 2.60173V10.7267C14.3333 10.9754 14.2345 11.2138 14.0586 11.3895C13.8828 11.5653 13.6443 11.6641 13.3957 11.6641H11.839" stroke="currentColor" stroke-width="1.33333" stroke-linecap="round" stroke-linejoin="round"/>
<path d="M10.7294 4.33203H2.60375C2.35518 4.33221 2.11685 4.43108 1.94115 4.6069C1.76545 4.78273 1.66675 5.02113 1.66675 5.2697V13.3944C1.66675 13.643 1.76554 13.8815 1.94138 14.0574C2.11723 14.2332 2.35573 14.332 2.60441 14.332H10.7294C10.978 14.3319 11.2165 14.2331 11.3922 14.0573C11.568 13.8814 11.6667 13.643 11.6667 13.3944V5.27003C11.6668 5.14687 11.6426 5.0249 11.5955 4.9111C11.5484 4.7973 11.4793 4.69389 11.3922 4.60679C11.3052 4.51968 11.2018 4.45058 11.088 4.40344C10.9742 4.3563 10.8526 4.33203 10.7294 4.33203Z" stroke="currentColor" stroke-width="1.33333" stroke-linejoin="round"/>
</svg>
