<svg xmlns="http://www.w3.org/2000/svg" width="24" height="24" viewBox="0 0 24 24" fill="none">
<path d="M7.62994 13.3647C7.31181 13.362 7.00053 13.2721 6.72994 13.1047L3.61994 11.2347C3.49822 11.1148 3.42113 10.9568 3.40143 10.7871C3.38172 10.6173 3.42058 10.4459 3.51158 10.3013C3.60257 10.1566 3.74025 10.0474 3.9018 9.99161C4.06335 9.93587 4.2391 9.93697 4.39994 9.99474L7.50994 11.8647C7.53978 11.8783 7.57217 11.8853 7.60494 11.8853C7.63771 11.8853 7.67009 11.8783 7.69994 11.8647C7.76543 11.8442 7.8219 11.8019 7.85994 11.7447L10.8599 6.53474C10.9655 6.37765 11.1266 6.2663 11.3109 6.22301C11.4951 6.17972 11.6889 6.20769 11.8534 6.30133C12.0179 6.39496 12.1409 6.54733 12.1978 6.72786C12.2546 6.9084 12.2411 7.10375 12.1599 7.27474L9.15994 12.4847C9.00546 12.7543 8.78275 12.9785 8.51418 13.1347C8.2456 13.291 7.94064 13.3737 7.62994 13.3747V13.3647Z" fill="#E4815A"/>
<path d="M18.18 20.7477H5.82001C5.41432 20.7485 5.02096 20.6083 4.70721 20.3511C4.39347 20.0939 4.17883 19.7357 4.10001 19.3377L2.46001 11.1277C2.42691 11.0258 2.41571 10.9181 2.42716 10.8116C2.4386 10.7051 2.47243 10.6022 2.52642 10.5097C2.58041 10.4172 2.65335 10.3372 2.74045 10.2748C2.82755 10.2125 2.92684 10.1692 3.03182 10.148C3.1368 10.1267 3.24509 10.1278 3.34959 10.1513C3.45409 10.1748 3.55245 10.2202 3.6382 10.2844C3.72395 10.3485 3.79517 10.4301 3.84719 10.5238C3.8992 10.6174 3.93083 10.721 3.94001 10.8277L5.58001 19.0477C5.58955 19.1042 5.619 19.1554 5.66301 19.1921C5.70703 19.2288 5.76272 19.2485 5.82001 19.2477H18.18C18.2359 19.2489 18.2904 19.2306 18.3342 19.1959C18.378 19.1612 18.4084 19.1123 18.42 19.0577L20.06 10.8277C20.1177 10.6503 20.2386 10.5002 20.3997 10.4062C20.5608 10.3121 20.7509 10.2806 20.9338 10.3177C21.1166 10.3548 21.2795 10.4578 21.3913 10.6072C21.5031 10.7565 21.556 10.9418 21.54 11.1277L19.9 19.3477C19.8192 19.7438 19.6036 20.0997 19.2901 20.3549C18.9765 20.6101 18.5843 20.7489 18.18 20.7477Z" fill="#E4815A"/>
<path d="M16.3701 13.37C16.0594 13.3689 15.7544 13.2862 15.4858 13.1299C15.2173 12.9737 14.9945 12.7495 14.8401 12.4799L11.8401 7.26995C11.7825 7.18431 11.7432 7.08772 11.7247 6.98622C11.7062 6.88471 11.7088 6.78047 11.7324 6.68003C11.756 6.57958 11.8001 6.48508 11.8619 6.40244C11.9237 6.31981 12.0018 6.25081 12.0915 6.19976C12.1812 6.14872 12.2804 6.11673 12.383 6.10579C12.4856 6.09485 12.5894 6.1052 12.6878 6.13619C12.7862 6.16718 12.8772 6.21815 12.955 6.2859C13.0328 6.35365 13.0958 6.43674 13.1401 6.52995L16.1401 11.74C16.1781 11.7971 16.2346 11.8394 16.3001 11.86C16.3299 11.8735 16.3623 11.8805 16.3951 11.8805C16.4278 11.8805 16.4602 11.8735 16.4901 11.86L19.6001 9.99995C19.7694 9.90531 19.9689 9.87999 20.1565 9.9293C20.3442 9.97861 20.5054 10.0987 20.6064 10.2644C20.7073 10.4301 20.7402 10.6284 20.698 10.8178C20.6558 11.0072 20.5418 11.1728 20.3801 11.28L17.2701 13.15C16.9955 13.3033 16.6844 13.3793 16.3701 13.37Z" fill="#E4815A"/>
<path d="M12 7.74609C11.555 7.74609 11.12 7.61413 10.75 7.3669C10.38 7.11967 10.0916 6.76827 9.92127 6.35713C9.75098 5.946 9.70642 5.4936 9.79323 5.05714C9.88005 4.62068 10.0943 4.21977 10.409 3.9051C10.7237 3.59044 11.1246 3.37614 11.561 3.28933C11.9975 3.20251 12.4499 3.24707 12.861 3.41737C13.2722 3.58766 13.6236 3.87605 13.8708 4.24606C14.118 4.61607 14.25 5.05109 14.25 5.49609C14.25 6.09283 14.0129 6.66513 13.591 7.08708C13.169 7.50904 12.5967 7.74609 12 7.74609ZM12 4.74609C11.8517 4.74609 11.7067 4.79008 11.5833 4.87249C11.46 4.9549 11.3639 5.07204 11.3071 5.20908C11.2503 5.34613 11.2355 5.49693 11.2644 5.64241C11.2934 5.7879 11.3648 5.92154 11.4697 6.02642C11.5746 6.13131 11.7082 6.20274 11.8537 6.23168C11.9992 6.26062 12.15 6.24577 12.287 6.189C12.4241 6.13224 12.5412 6.03611 12.6236 5.91277C12.706 5.78944 12.75 5.64443 12.75 5.49609C12.7474 5.29799 12.6676 5.10872 12.5275 4.96863C12.3874 4.82853 12.1981 4.74868 12 4.74609Z" fill="#E4815A"/>
<path d="M3 11.75C2.55499 11.75 2.11998 11.618 1.74997 11.3708C1.37996 11.1236 1.09157 10.7722 0.921272 10.361C0.750975 9.9499 0.706417 9.4975 0.793234 9.06105C0.880051 8.62459 1.09434 8.22368 1.40901 7.90901C1.72368 7.59434 2.12459 7.38005 2.56105 7.29323C2.99751 7.20642 3.4499 7.25097 3.86104 7.42127C4.27217 7.59157 4.62357 7.87996 4.87081 8.24997C5.11804 8.61998 5.25 9.05499 5.25 9.5C5.25 10.0967 5.01295 10.669 4.59099 11.091C4.16903 11.5129 3.59674 11.75 3 11.75ZM3 8.75C2.85167 8.75 2.70666 8.79399 2.58332 8.8764C2.45999 8.95881 2.36386 9.07594 2.30709 9.21299C2.25033 9.35003 2.23547 9.50083 2.26441 9.64632C2.29335 9.7918 2.36478 9.92544 2.46967 10.0303C2.57456 10.1352 2.7082 10.2067 2.85368 10.2356C2.99917 10.2645 3.14997 10.2497 3.28701 10.1929C3.42406 10.1361 3.54119 10.04 3.6236 9.91668C3.70601 9.79334 3.75 9.64834 3.75 9.5C3.74741 9.30189 3.66756 9.11263 3.52747 8.97254C3.38737 8.83244 3.19811 8.75259 3 8.75Z" fill="#E4815A"/>
<path d="M21 11.75C20.555 11.75 20.12 11.618 19.75 11.3708C19.38 11.1236 19.0916 10.7722 18.9213 10.361C18.751 9.9499 18.7064 9.4975 18.7932 9.06105C18.8801 8.62459 19.0943 8.22368 19.409 7.90901C19.7237 7.59434 20.1246 7.38005 20.561 7.29323C20.9975 7.20642 21.4499 7.25097 21.861 7.42127C22.2722 7.59157 22.6236 7.87996 22.8708 8.24997C23.118 8.61998 23.25 9.05499 23.25 9.5C23.25 10.0967 23.0129 10.669 22.591 11.091C22.169 11.5129 21.5967 11.75 21 11.75ZM21 8.75C20.8517 8.75 20.7067 8.79399 20.5833 8.8764C20.46 8.95881 20.3639 9.07594 20.3071 9.21299C20.2503 9.35003 20.2355 9.50083 20.2644 9.64632C20.2934 9.7918 20.3648 9.92544 20.4697 10.0303C20.5746 10.1352 20.7082 10.2067 20.8537 10.2356C20.9992 10.2645 21.15 10.2497 21.287 10.1929C21.4241 10.1361 21.5412 10.04 21.6236 9.91668C21.706 9.79334 21.75 9.64834 21.75 9.5C21.7474 9.30189 21.6676 9.11263 21.5275 8.97254C21.3874 8.83244 21.1981 8.75259 21 8.75Z" fill="#E4815A"/>
</svg>